<svg width="300" height="90" viewBox="0 0 300 90" fill="none" xmlns="http://www.w3.org/2000/svg">
<path d="M299.883 90H130.08V17.2378H253.533V0C257.467 1.44235 261.121 2.75571 264.775 4.11597L298.571 16.6046C299.461 16.9329 300 17.2261 300 18.3753C299.953 41.9531 299.953 65.5271 300 89.0971C299.965 89.3316 299.918 89.5544 299.883 90ZM233.871 30.7114V69.1974L233.25 69.5374C233.17 69.2617 233.072 68.9915 232.957 68.7284C230.053 62.9433 227.145 57.1583 224.233 51.3733C220.907 44.7479 217.605 38.1225 214.256 31.5088C214.144 31.2943 213.987 31.1072 213.794 30.9612C213.602 30.8151 213.379 30.7138 213.143 30.6645C208.459 30.6645 203.833 30.6645 199.091 30.6645V76.7023H207.464V38.1694L208.049 37.9583C208.506 38.7674 209.009 39.5648 209.419 40.3974C214.712 50.9512 220.158 61.5049 225.17 72.2111C226.868 75.8346 229.346 76.8816 232.864 76.9017C236.954 76.925 238.846 76.925 242.232 76.8196V30.7114H233.871ZM141.779 53.2847C141.779 67.5792 151.874 77.8398 165.903 78.0274C180.611 78.2267 190.413 66.8756 190.495 53.6951C190.577 39.3069 180.564 29.2691 166.231 29.2573C151.897 29.2456 141.803 39.084 141.779 53.2847ZM253.79 30.6645V76.6202H285.479V69.1622H262.632V57.0723H283.828V49.4736H262.632V38.228H285.057V30.6762L253.79 30.6645Z" fill="white"/>
<path d="M8.19736 40.6788V75.9635H0V29.9727H4.7896C6.78038 29.9727 8.75946 29.9727 10.7502 29.9727C11.166 29.8947 11.5959 29.9706 11.96 30.1863C12.324 30.402 12.5974 30.7428 12.7293 31.1453C16.1722 39.5023 19.658 47.8437 23.1868 56.1694C23.5071 56.6685 23.902 57.1154 24.3579 57.4945C24.818 57.1109 25.2134 56.6555 25.5289 56.146C28.964 47.9766 32.3561 39.7681 35.7054 31.5205C35.852 30.9708 36.1992 30.496 36.6783 30.1899C37.1574 29.8838 37.7337 29.7686 38.2934 29.8671C41.7246 29.9727 45.1792 29.8671 48.7743 29.8671V75.7994H40.0031V40.5381L39.605 40.4443L34.6865 51.9714C32.7426 56.6619 30.8221 61.3525 28.8313 66.043C28.6956 66.2323 28.5208 66.39 28.3187 66.5053C28.1166 66.6207 27.892 66.691 27.6602 66.7114C25.2596 66.7701 22.8706 66.7935 20.47 66.7114C20.1851 66.6617 19.9155 66.5469 19.6819 66.3761C19.4484 66.2053 19.2573 65.983 19.1233 65.7264C16.5235 59.6756 13.9941 53.5896 11.4295 47.5153C10.4692 45.2287 9.4738 42.9538 8.50183 40.6788H8.19736Z" fill="white"/>
<path d="M75.4626 54.9147C75.8373 51.1857 74.2095 48.9694 70.7081 48.8521C66.8085 48.7114 62.8855 48.9694 58.9976 49.0632C58.6111 49.0632 58.213 49.0632 57.5806 49.157C57.5806 46.8117 57.5806 44.6424 57.5806 42.4495C57.5806 42.1564 58.2247 41.6638 58.5994 41.6404C63.8457 41.3355 69.1389 40.8195 74.3149 41.8984C80.0765 43.071 83.7887 47.0814 83.941 52.9563C84.1401 60.4378 83.941 67.9309 83.941 75.4124C83.9082 75.6057 83.8532 75.7946 83.777 75.9752H77.0435V70.2528C76.8156 70.4847 76.6079 70.7358 76.4228 71.0032C73.4718 78.7427 60.4965 78.5433 55.8943 72.985C52.4865 68.869 51.9479 59.828 59.2786 56.8026C62.1814 55.7931 65.2062 55.1779 68.2723 54.9733C70.6657 54.8097 73.0668 54.7902 75.4626 54.9147ZM75.6148 60.1563C72.9682 60.1563 70.5441 60.0977 68.1084 60.1563C67.0655 60.185 66.0387 60.4202 65.0871 60.8482C64.1953 61.2323 63.4448 61.8843 62.9392 62.7141C62.4336 63.5438 62.198 64.5104 62.2648 65.4801C62.2014 66.4509 62.4489 67.4167 62.9711 68.237C63.4934 69.0573 64.2633 69.6895 65.169 70.0417C70.0055 71.9414 75.7085 69.8189 75.6148 63.3576C75.6031 62.4078 75.6734 61.4111 75.6734 60.1563H75.6148Z" fill="white"/>
<path d="M122.914 54.3518C120.29 54.3518 117.89 54.3518 115.513 54.3518C115.236 54.2909 114.977 54.1672 114.756 53.9904C114.535 53.8135 114.357 53.5881 114.236 53.3316C112.819 49.6261 110.723 48.172 106.624 48.2306C104.948 48.2165 103.311 48.7422 101.955 49.7303C100.599 50.7184 99.5964 52.1165 99.0944 53.7186C98.0055 57.204 98.0055 60.9393 99.0944 64.4248C99.6077 66.0262 100.634 67.4134 102.014 68.3716C103.395 69.3298 105.052 69.8055 106.73 69.7251C110.758 69.7251 113.264 68.1889 114.388 64.671C114.418 64.4624 114.489 64.2619 114.598 64.0814C114.707 63.901 114.851 63.7443 115.021 63.6207C115.192 63.4971 115.385 63.409 115.59 63.3618C115.795 63.3146 116.008 63.3092 116.215 63.3459C118.487 63.4163 120.759 63.3459 123.159 63.3459C123.111 65.2349 122.669 67.0929 121.863 68.8011C121.056 70.5094 119.902 72.0302 118.475 73.2665C111.449 79.5166 96.5181 79.3407 91.2132 67.7433C88.3559 61.4932 88.4495 50.013 95.8974 44.1498C102.596 38.8847 115.079 39.3186 120.408 46.9876C121.873 49.1801 122.737 51.7196 122.914 54.3518Z" fill="white"/>
<path d="M166.114 37.6886C175.201 37.6886 181.63 44.2085 181.244 54.2463C180.998 60.3323 178.574 65.2808 172.929 68.0482C170.652 69.2031 168.121 69.762 165.57 69.6729C163.019 69.5837 160.532 68.8493 158.342 67.5381C156.151 66.227 154.327 64.3818 153.04 62.1745C151.754 59.9672 151.046 57.4697 150.984 54.9147C150.714 49.1218 152.155 44.0326 157.073 40.4208C159.719 38.5691 162.886 37.6119 166.114 37.6886Z" fill="white"/>
</svg>
